<svg xmlns="http://www.w3.org/2000/svg" width="32" height="32" id="game"><g fill-rule="evenodd" transform="translate(0 -1020.362)"><circle cx="16" cy="1036.362" r="16" fill="#474744"></circle><path style="line-height:normal;text-indent:0;text-align:start;text-decoration-line:none;text-decoration-style:solid;text-decoration-color:#000;text-transform:none;block-progression:tb;isolation:auto;mix-blend-mode:normal" fill="#30302e" d="M15.12 31.955A16 16 0 0 0 16 32a16 16 0 0 0 1.13-.041 16 16 0 0 0 1.589-.191 16 16 0 0 0 1.56-.352 16 16 0 0 0 1.518-.504 16 16 0 0 0 1.46-.652 16 16 0 0 0 1.388-.797 16 16 0 0 0 1.3-.93 16 16 0 0 0 1.201-1.054 16 16 0 0 0 1.092-1.172 16 16 0 0 0 .967-1.272 16 16 0 0 0 .836-1.365 16 16 0 0 0 .695-1.44 16 16 0 0 0 .55-1.501 16 16 0 0 0 .396-1.551 16 16 0 0 0 .091-.612l-6.232-6.232-5.875-5.875h-.598v5.875h-.261l-5.875-5.875h-.598v5.875H6.459v.598l5.875 5.875v.261H6.459v.598l1.307 1.307-.342.341 1.472 1.473-1.472 1.473.422.422 7.273 7.273z" color="#000" font-family="sans-serif" font-weight="400" transform="translate(0 1020.362)"></path><path style="line-height:normal;text-indent:0;text-align:start;text-decoration-line:none;text-decoration-style:solid;text-decoration-color:#000;text-transform:none;block-progression:tb;isolation:auto;mix-blend-mode:normal" fill="#fff" d="M12.335 1026.821v5.876H6.459v.596h5.876v6.138H6.459v.596h5.876v5.876h.596v-5.876h6.138v5.876h.596v-5.876h5.876v-.596h-5.876v-6.138h5.876v-.596h-5.876v-5.876h-.596v5.876H12.93v-5.876h-.596zm.596 6.472h6.138v6.138H12.93v-6.138zm9.86 1.104a1.964 1.964 0 0 0-1.965 1.965 1.964 1.964 0 0 0 1.965 1.965 1.964 1.964 0 0 0 1.964-1.965 1.964 1.964 0 0 0-1.964-1.965zm-8.264.07-.422.422 1.473 1.473-1.473 1.474.422.421 1.473-1.473 1.473 1.473.422-.421-1.473-1.474 1.473-1.473-.422-.422-1.473 1.474-1.473-1.474zm1.473 6.718a1.964 1.964 0 0 0-1.965 1.964 1.964 1.964 0 0 0 1.965 1.965 1.964 1.964 0 0 0 1.965-1.965 1.964 1.964 0 0 0-1.965-1.964zm-8.155.07-.421.422 1.472 1.473-1.472 1.472.421.422 1.472-1.472 1.474 1.472.421-.422-1.473-1.472 1.473-1.473-.421-.422-1.474 1.473-1.472-1.473z" color="#000" font-family="sans-serif" font-weight="400" overflow="visible"></path></g></svg>