<?xml version="1.0" encoding="UTF-8"?>
<svg id="Layer_1" data-name="Layer 1" xmlns="http://www.w3.org/2000/svg" xmlns:xlink="http://www.w3.org/1999/xlink" viewBox="0 0 795 794">
  <defs>
    <style>
      .cls-1, .cls-2, .cls-3 {
        fill: #fff;
      }

      .cls-2 {
        filter: url(#drop-shadow-3);
      }

      .cls-4 {
        fill: #333;
      }

      .cls-3 {
        filter: url(#drop-shadow-1);
      }

      .cls-5 {
        filter: url(#drop-shadow-2);
      }
    </style>
    <filter id="drop-shadow-1" filterUnits="userSpaceOnUse">
      <feOffset dx="25" dy="25"/>
      <feGaussianBlur result="blur" stdDeviation="20"/>
      <feFlood flood-color="#000" flood-opacity="1"/>
      <feComposite in2="blur" operator="in"/>
      <feComposite in="SourceGraphic"/>
    </filter>
    <filter id="drop-shadow-2" filterUnits="userSpaceOnUse">
      <feOffset dx="25" dy="25"/>
      <feGaussianBlur result="blur-2" stdDeviation="20"/>
      <feFlood flood-color="#000" flood-opacity="1"/>
      <feComposite in2="blur-2" operator="in"/>
      <feComposite in="SourceGraphic"/>
    </filter>
    <filter id="drop-shadow-3" filterUnits="userSpaceOnUse">
      <feOffset dx="25" dy="25"/>
      <feGaussianBlur result="blur-3" stdDeviation="20"/>
      <feFlood flood-color="#000" flood-opacity="1"/>
      <feComposite in2="blur-3" operator="in"/>
      <feComposite in="SourceGraphic"/>
    </filter>
  </defs>
  <rect class="cls-4" width="768" height="768"/>
  <path class="cls-3" d="m691.43,366.43h-289.43V76c0-9.94-8.06-18-18-18s-18,8.06-18,18v290.43H76.57c-9.94,0-18,8.06-18,18s8.06,18,18,18h289.43v288.43c0,9.94,8.06,18,18,18s18-8.06,18-18v-288.43h289.43c9.94,0,18-8.06,18-18s-8.06-18-18-18Z"/>
  <g class="cls-5">
    <path class="cls-1" d="m593,603.43c0,18.03-6.38,33.41-19.13,46.16s-28.14,19.13-46.16,19.13-33.41-6.37-46.16-19.13c-12.75-12.75-19.13-28.14-19.13-46.16v-87.05c0-18.03,6.37-33.41,19.13-46.16,12.75-12.75,28.14-19.13,46.16-19.13s33.55,6.35,46.25,19.04,19.04,28.11,19.04,46.25v87.05Zm-21.76,0v-87.05c0-12.2-4.2-22.5-12.61-30.91s-18.71-12.61-30.91-12.61-22.5,4.2-30.91,12.61c-8.41,8.41-12.61,18.71-12.61,30.91v87.05c0,12.2,4.2,22.5,12.61,30.91,8.41,8.41,18.71,12.61,30.91,12.61s22.5-4.2,30.91-12.61,12.61-18.71,12.61-30.91Z"/>
  </g>
  <path class="cls-2" d="m222.37,208.9l61.17,91.83c1.21,1.87,1.81,3.9,1.81,6.1,0,7.25-3.63,10.88-10.88,10.88-3.96,0-6.98-1.59-9.07-4.78l-56.22-84.41-56.22,84.41c-2.09,3.19-5.11,4.78-9.07,4.78-7.25,0-10.88-3.63-10.88-10.88,0-2.2.6-4.23,1.81-6.1l61.17-91.83-61.17-91.83c-1.21-1.87-1.81-3.9-1.81-6.1,0-7.25,3.63-10.88,10.88-10.88,3.96,0,6.98,1.59,9.07,4.78l56.22,84.25,56.22-84.25c2.09-3.19,5.11-4.78,9.07-4.78,7.25,0,10.88,3.63,10.88,10.88,0,2.2-.61,4.23-1.81,6.1l-61.17,91.83Z"/>
</svg>